<svg xmlns="http://www.w3.org/2000/svg" width="64" height="64" viewBox="0 0 64 64">
  <path fill="#E9E9E9" d="M32 47.8612397C36.738651 47.8612397 40.9961653 45.8012491 43.9258741 42.5279368L57.7652891 50.8423758C51.9380383 58.7391886 42.5671787 63.8612397 32 63.8612397 21.2326897 63.8612397 11.7074418 58.5433385 5.90745345 50.3907333L19.8896748 42.3182189C22.8236111 45.7130187 27.1609336 47.8612397 32 47.8612397zM29.000191 2.84217094e-14L29.000191 16.141995C21.5975142 17.5461393 16 24.0500047 16 31.8612397 16 33.7048001 16.311796 35.4755367 16.8855316 37.123593L2.90250844 45.1966425C1.0389842 41.1371388 5.68434189e-14 36.6205231 5.68434189e-14 31.8612397 5.68434189e-14 15.1997257 12.7337034 1.51232753 29.000191 2.84217094e-14zM64 31.8612397C64 36.8192213 62.8724505 41.5138495 60.8597915 45.7026845L47.020316 37.386573C47.6540126 35.6644571 48 33.8032532 48 31.8612397 48 24.0503554 42.4029883 17.5467232 35.000806 16.1421842L35.000806.0000929196381C51.2668181 1.51288809 64 15.2000669 64 31.8612397z"/>
</svg>
