<svg xmlns="http://www.w3.org/2000/svg" width="64" height="64" viewBox="0 0 64 64">
  <g fill="none" fill-rule="evenodd">
    <path fill="#FCB913" d="M32,47.8612397 C36.738651,47.8612397 40.9961653,45.8012491 43.9258741,42.5279368 L57.7652891,50.8423758 C51.9380383,58.7391886 42.5671787,63.8612397 32,63.8612397 C21.2326897,63.8612397 11.7074418,58.5433385 5.90745345,50.3907333 L19.8896748,42.3182189 C22.8236111,45.7130187 27.1609336,47.8612397 32,47.8612397 Z"/>
    <path fill="#FCB913" fill-rule="nonzero" d="M29.000191,2.84217094e-14 L29.000191,16.141995 C21.5975142,17.5461393 16,24.0500047 16,31.8612397 C16,33.7048001 16.311796,35.4755367 16.8855316,37.123593 L2.90250844,45.1966425 C1.0389842,41.1371388 5.68434189e-14,36.6205231 5.68434189e-14,31.8612397 C5.68434189e-14,15.1997257 12.7337034,1.51232753 29.000191,2.84217094e-14 Z"/>
    <path fill="#FCB913" d="M64,31.8612397 C64,36.8192213 62.8724505,41.5138495 60.8597915,45.7026845 L47.020316,37.386573 C47.6540126,35.6644571 48,33.8032532 48,31.8612397 C48,24.0503554 42.4029883,17.5467232 35.000806,16.1421842 L35.000806,9.29196381e-05 C51.2668181,1.51288809 64,15.2000669 64,31.8612397 Z"/>
  </g>
</svg>
