<svg xmlns="http://www.w3.org/2000/svg" width="156" height="156" viewBox="0 0 156 156">
  <g fill="none">
    <circle cx="78" cy="78" r="78" fill="#DD5832"/>
    <g transform="translate(39 30.643)">
      <path fill="#FFF" d="M73.33291,54.6236387 C73.33291,53.5205989 74.0005247,52.8652119 75.1099979,52.8652119 C75.1099979,52.8652119 80.424924,52.863749 81.318295,52.863749 C82.4819793,52.863749 83.0322602,52.0291546 82.7552632,50.9136801 C82.7025373,50.6796133 77.1767073,30.5257314 77.1767073,30.5257314 C72.9957608,12.9794998 57.7527578,0.113141104 39.0320687,0.113141104 C17.6178995,0.113141104 0,17.2124514 0,38.3040633 C0,51.082647 6.2439428,62.3917302 15.9002211,70.853976 L15.9002211,89.3394006 L52.4950134,95.2027736 L52.4950134,79.3842475 C52.4950134,77.4868436 53.6393896,76.49718 55.4216759,76.49718 C55.4216759,76.49718 70.1285078,76.4942541 70.3260446,76.4942541 C71.9806003,76.4942541 73.33291,75.1695824 73.33291,73.5398924 L73.33291,73.5245318 L73.33291,54.6236387 Z"/>
      <path fill="#FCB913" d="M12.2771302,32.8491369 C11.0985935,32.643597 10.0113989,31.6444244 9.57548135,30.7015741 C8.96579093,29.3820226 9.04376596,27.9505579 9.58290754,26.5585919 C10.1175934,25.184181 11.0696313,24.1864713 12.443477,23.5735089 C13.6598873,23.0278407 14.9141713,22.9027613 16.151375,23.2538615 C15.6152038,22.4580344 15.3664264,21.5378593 15.3233545,20.5408811 C15.2624597,19.09113 15.7473901,17.8220491 16.777403,16.7351014 C17.7985045,15.6583942 19.0609572,15.0878564 20.5677317,15.0256824 C21.9155857,14.970823 23.1579877,15.3621534 24.1731483,16.1579805 C23.9600165,15.2209819 24.0320506,14.3015383 24.3640014,13.3477162 C24.8429909,11.9769625 25.7638387,10.9697439 27.1280303,10.3253288 C28.4766269,9.6904226 29.8638397,9.61288797 31.2896687,10.0963822 C32.5625181,10.5279428 33.5561427,11.3062149 34.2066772,12.4136434 C34.3566863,11.4568954 34.7926038,10.5915797 35.4594759,9.82281662 C36.4159695,8.71904543 37.6487175,8.11632345 39.155492,8.01026194 C40.6466715,7.9063948 41.9663059,8.3350296 43.1114248,9.30201802 C44.1473787,10.1731853 44.7823182,11.2564757 44.967973,12.5365284 C45.4595869,11.6873049 46.1769572,11.0231404 47.0896362,10.5389147 C48.383279,9.84914914 49.7526689,9.7240697 51.1985486,10.1607505 C52.6273481,10.595237 53.7004329,11.4620156 54.4170605,12.7720581 C55.0601688,13.9482438 55.2361696,15.1661225 54.9435776,16.4235 C55.7203574,15.8178522 56.6441757,15.4616318 57.6756739,15.3453299 C59.1378912,15.1807517 60.456783,15.5684248 61.6323493,16.5068863 C62.7923206,17.4329131 63.460678,18.6346997 63.6277673,20.1107834 C63.7762912,21.4142428 63.4621632,22.6255385 62.7425651,23.670793 C63.2334365,23.5149922 63.7540126,23.4433093 64.2990951,23.4433093 C67.1054533,23.4433093 69.3808388,25.6837673 69.3808388,28.4479498 C69.3808388,30.7542391 67.8050007,32.6955305 65.6499196,33.2755773 C68.180766,33.6361864 70.1338547,35.7844807 70.1338547,38.3782333 C70.1338547,41.225802 67.7916335,43.5138049 64.8998741,43.5138049 L38.6995238,43.5138049 C35.9392079,43.6323012 34.5490247,45.0520625 34.5490247,47.9449818 L34.5490247,92.327702 L28.3266178,91.3299923 L28.3384997,51.1012261 L21.2338612,51.1012261 C19.1018013,51.1012261 17.3752115,49.3983902 17.3752115,47.2991037 C17.3752115,45.2173722 19.0728392,43.5291655 21.17965,43.5013701 L13.1749569,43.493324 C10.1666063,43.493324 7.72784461,41.101454 7.72784461,38.1375833 C7.72784461,35.477268 9.69875615,33.2726515 12.2771302,32.8491369"/>
    </g>
  </g>
</svg>
